# xmcd
# 
# Track frame offsets:
#     150
#     30337
#     77030
#     106497
#     130800
#     179187
#     225610
#     263015
#     292992
#     317042
# 
# Disc length: 4512
# 
# Revision: 4
# Processed by: cddbd v1.5.2PL0 Copyright (c) Steve Scherf et al.
# Submitted via: fre:ac v1.0.17
# 
DISCID=83119e0a
DTITLE=Miles Davis - The Complete Jack Johnson Sessions CD1
DYEAR=2003
DGENRE=Jazz
TTITLE0=Willie Nelson (take 2)
TTITLE1=Willie Nelson (take 3)
TTITLE2=Willie Nelson (insert 1)
TTITLE3=Willie Nelson (insert 2)
TTITLE4=Willie Nelson (remake take 1)
TTITLE5=Willie Nelson (remake take 2)
TTITLE6=Johnny Bratton (take 4)
TTITLE7=Johnny Bratton (insert 1)
TTITLE8=Johnny Bratton (insert 2)
TTITLE9=Archie Moore
EXTD=YEAR: 2003
EXTT0=
EXTT1=
EXTT2=
EXTT3=
EXTT4=
EXTT5=
EXTT6=
EXTT7=
EXTT8=
EXTT9=
PLAYORDER=
